<svg xmlns:xlink="http://www.w3.org/1999/xlink" xmlns="http://www.w3.org/2000/svg" viewBox="0 0 370.18518518518516 88.97576844847676" preserveAspectRatio="xMidYMid meet" class="css-1q2xkvy" id="dbcccdbc" width="370.18518518518516"  height="88.97576844847676" ><defs id="SvgjsDefs1600"></defs><g id="SvgjsG1601" featurekey="HdFLvg-0" transform="matrix(0.9907742185046765,0,0,0.9907742185046765,-20.240502789666802,-5.223736633180437)" fill="#39b795"><polygon xmlns="http://www.w3.org/2000/svg" points="38.2549362,40.6132126 36.0583801,48.7295647 44.4317093,48.0440788 " fill="#579B57"></polygon><rect xmlns="http://www.w3.org/2000/svg" x="54.3803253" y="3.6583424" transform="matrix(0.6392117 0.7690308 -0.7690308 0.6392117 42.9711609 -38.886219)" width="17.0976219" height="45.3913841" fill="#579B57"></rect><polygon xmlns="http://www.w3.org/2000/svg" points="30.2069702,68.7853775 48.0043716,57.2097015 50.1891022,55.7886467 47.7255363,55.3441963 31.0839844,52.3428421   44.8651772,56.5901756 24.2783337,67.6909256 20.4289761,69.7664871 24.6541729,71.437767 45.2117767,79.5691605   20.4612541,85.633667 23.1904202,95.0766602 57.4343567,83.6362305 67.7759933,80.1808548 57.6113472,77.0979843 " fill="#579B57"></polygon></g><g id="SvgjsG1602" featurekey="VomJeJ-0" transform="matrix(1.8508905116721919,0,0,1.8508905116721919,83.33419836298036,22.078708298586992)" fill="#111111"><path d="M14.94 9.74 l-5.1 6.1 l-5.06 -6.1 l0 10.26 l-2.14 0 l0 -12.82 l-1.74 -2.1 l2.82 0 l6.1 7.32 l6.18 -7.32 l2.82 0 l-1.74 2.1 l0 12.82 l-2.14 0 l0 -10.26 z M24.099999999999998 14.02 l0 3.8 l9.2 0 l0 2.18 l-11.38 0 l0 -14.92 l10.5 0 l0 2.2 l-8.32 0 l0 4.52 q0.62 -0.36 1.38 -0.48 q0.56 -0.1 1.44 -0.1 l3.26 0 l0 2.22 l-3.26 0 q-0.82 0 -1.44 0.1 q-0.76 0.14 -1.38 0.48 z M37.24 7.18 l-1.74 -2.1 l2.82 0 l9.58 11.4 l0 -11.4 l2.2 0 l0 14.92 l-2.16 0 l-8.56 -10.26 l0 10.26 l-2.14 0 l0 -12.82 z M65.6 7.279999999999999 l-5.26 0 l0 12.72 l-2.12 0 l0 -12.72 l-5.32 0 l0 -2.2 l12.7 0 l0 2.2 z M70.58 14.02 l0 3.8 l9.2 0 l0 2.18 l-11.38 0 l0 -14.92 l10.5 0 l0 2.2 l-8.32 0 l0 4.52 q0.62 -0.36 1.38 -0.48 q0.56 -0.1 1.44 -0.1 l3.26 0 l0 2.22 l-3.26 0 q-0.82 0 -1.44 0.1 q-0.76 0.14 -1.38 0.48 z M93.36 6.66 l-0.82 -1.84 l2.4 0 l7.18 15.18 l-2.44 0 l-0.98 -2.18 l-4.54 0 q-1.28 0 -2.3 0.24 q-0.9 0.22 -1.5 0.58 q-0.54 0.32 -0.72 0.66 l-0.38 0.7 l-2.36 0 z M94.96000000000001 15.620000000000001 l2.76 0 l-3.26 -6.3 l-3.3 7.14 q0.44 -0.38 1.34 -0.6 q1.02 -0.24 2.46 -0.24 z M116.02 7.279999999999999 l-5.26 0 l0 12.72 l-2.12 0 l0 -12.72 l-5.32 0 l0 -2.2 l12.7 0 l0 2.2 z M120.96000000000001 20 l-2.14 0 l0 -14.92 l2.14 0 l0 14.92 z M138.76000000000002 5.08 l-6.26 14.92 l-2.58 0 l-6.16 -14.92 l2.36 0 l5.1 12.48 l5.14 -12.48 l2.4 0 z M146.22000000000003 6.66 l-0.82 -1.84 l2.4 0 l7.18 15.18 l-2.44 0 l-0.98 -2.18 l-4.54 0 q-1.28 0 -2.3 0.24 q-0.9 0.22 -1.5 0.58 q-0.54 0.32 -0.72 0.66 l-0.38 0.7 l-2.36 0 z M147.82000000000002 15.620000000000001 l2.76 0 l-3.26 -6.3 l-3.3 7.14 q0.44 -0.38 1.34 -0.6 q1.02 -0.24 2.46 -0.24 z" fill="#111111"></path></g></svg>